<?xml version="1.0" encoding="utf-8"?>
<!-- Generator: Adobe Illustrator 19.0.0, SVG Export Plug-In . SVG Version: 6.00 Build 0)  -->
<svg version="1.1" id="Ebene_1" xmlns="http://www.w3.org/2000/svg" xmlns:xlink="http://www.w3.org/1999/xlink" x="0px" y="0px"
	 viewBox="-767.5 1150.7 53.2 58.6" style="enable-background:new -767.5 1150.7 53.2 58.6;" xml:space="preserve">
<path d="M-725.8,1152c-0.6-0.8-1.3-1.2-2-1.3c-0.7-0.1-1.5,0.1-2.2,0.7s-1.2,1.5-1.5,2.8l-1.6,12.6h-13.6l1.5-11.6
	c0.1-1.3-0.2-2.3-0.8-3.1c-0.6-0.7-1.3-1.2-2-1.3c-0.7-0.1-1.5,0.1-2.2,0.7s-1.2,1.5-1.5,2.8l-1.5,12.5h-8c-1.2,0.1-2.1,0.4-2.7,1.1
	c-0.6,0.7-1,1.5-1,2.4c-0.1,0.9,0.2,1.7,0.8,2.4c0.6,0.8,1.5,1.2,2.7,1.4h7.5l-1.4,11.2h-8.4c-1.1,0.1-2,0.5-2.7,1.2
	c-0.6,0.7-0.9,1.5-1,2.3c0,0.9,0.3,1.7,0.8,2.5c0.6,0.7,1.4,1.2,2.6,1.4h7.7l-1.6,12.6c0.1,1.2,0.4,2.1,1,2.8c0.6,0.6,1.2,1,1.9,1.1
	c0.7,0.1,1.4-0.1,2-0.6c0.7-0.5,1.2-1.2,1.6-2.3l1.7-13.5h13.5l-1.5,12.6c0.1,1.2,0.4,2.1,1,2.8c0.6,0.6,1.2,1,1.9,1.1
	c0.7,0.1,1.3-0.1,2-0.6c0.7-0.5,1.3-1.2,1.6-2.3l1.7-13.5h9.8c1-0.3,1.8-0.7,2.4-1.4c0.5-0.7,0.8-1.4,0.8-2.2c0-0.7-0.2-1.5-0.7-2.2
	c-0.5-0.7-1.2-1.2-2.2-1.6h-9.2l1.4-11.2h9.8c1-0.2,1.8-0.7,2.3-1.4c0.5-0.7,0.8-1.4,0.9-2.2c0-0.7-0.2-1.4-0.7-2.2
	c-0.5-0.7-1.2-1.3-2.2-1.6h-9.2l1.5-11.7C-725,1153.8-725.2,1152.7-725.8,1152 M-747.6,1174.1h13.5l-1.2,11.2h-13.5L-747.6,1174.1"
	/>
</svg>
